<svg width="22" height="23" viewBox="0 0 22 23" fill="none" xmlns="http://www.w3.org/2000/svg">
<g id="Layer 2">
<g id="Group">
<path id="Vector" d="M14.3757 17.9517H21V4.638H1V17.9517H8.52286L11 22L13.4743 17.9517H14.3757Z" stroke="#231916" stroke-miterlimit="10"/>
<path id="Vector_2" d="M15.9471 11.1332C16.4418 11.1332 16.8428 10.5516 16.8428 9.83414C16.8428 9.1167 16.4418 8.5351 15.9471 8.5351C15.4524 8.5351 15.0514 9.1167 15.0514 9.83414C15.0514 10.5516 15.4524 11.1332 15.9471 11.1332Z" fill="#231916"/>
<path id="Vector_3" d="M5.98275 11.1332C6.47744 11.1332 6.87846 10.5516 6.87846 9.83414C6.87846 9.1167 6.47744 8.5351 5.98275 8.5351C5.48806 8.5351 5.08704 9.1167 5.08704 9.83414C5.08704 10.5516 5.48806 11.1332 5.98275 11.1332Z" fill="#231916"/>
<path id="Vector_4" d="M11.0356 0V4.64993" stroke="#231916" stroke-miterlimit="10"/>
</g>
</g>
</svg>
