<svg width="30" height="30" viewBox="0 0 30 30" fill="none" xmlns="http://www.w3.org/2000/svg">
<path d="M29.5002 15C29.5002 23.0081 23.0083 29.5 15.0002 29.5C6.99204 29.5 0.500168 23.0081 0.500168 15C0.500168 6.99187 6.99204 0.5 15.0002 0.5C23.0083 0.5 29.5002 6.99187 29.5002 15Z" stroke="#BBBBBB"/>
<path d="M21.9312 11.3241C21.4856 11.5169 20.9975 11.6335 20.5147 11.7096C20.7428 11.6741 21.0771 11.2785 21.2097 11.1212C21.4166 10.8778 21.5864 10.5988 21.6819 10.2995C21.6925 10.2741 21.7031 10.2488 21.6819 10.2285C21.65 10.2183 21.6288 10.2234 21.6076 10.2336C21.0718 10.5075 20.52 10.7053 19.9311 10.8473C19.8834 10.8575 19.8462 10.8473 19.8144 10.8169C19.7667 10.7662 19.7189 10.7154 19.6659 10.6749C19.4165 10.472 19.1513 10.3147 18.8542 10.198C18.4616 10.0459 18.0318 9.97994 17.6074 10.0053C17.1936 10.0307 16.7904 10.1423 16.4244 10.3249C16.0583 10.5075 15.7294 10.7611 15.4694 11.0705C15.1988 11.3901 15.0026 11.7654 14.9018 12.1611C14.801 12.5466 14.8116 12.927 14.8699 13.3125C14.8805 13.3785 14.8699 13.3835 14.8116 13.3785C12.5038 13.0487 10.5939 12.2625 9.04477 10.5734C8.9758 10.5024 8.93866 10.5024 8.88561 10.5785C8.20654 11.5524 8.53546 13.1147 9.3843 13.8806C9.49571 13.9821 9.61243 14.0835 9.73975 14.1799C9.69201 14.19 9.12965 14.1292 8.62565 13.8806C8.55668 13.84 8.52485 13.8654 8.51955 13.9364C8.51424 14.0429 8.51955 14.1393 8.53546 14.2509C8.6681 15.235 9.379 16.148 10.3605 16.5031C10.4772 16.5487 10.6045 16.5893 10.7318 16.6096C10.509 16.6552 10.2809 16.6907 9.63895 16.64C9.55938 16.6248 9.52754 16.6654 9.55938 16.7364C10.0422 17.9893 11.0767 18.3596 11.8512 18.5726C11.9573 18.5878 12.0581 18.5878 12.1642 18.6132C12.1589 18.6233 12.1536 18.6233 12.1483 18.6284C11.8884 19.0038 10.9971 19.2828 10.5833 19.4197C9.82464 19.6733 9.00233 19.7849 8.20654 19.7088C8.07921 19.6885 8.05269 19.6936 8.01555 19.7088C7.97841 19.7291 8.01555 19.7596 8.05269 19.79C8.21715 19.8914 8.38161 19.9827 8.54607 20.069C9.05538 20.3277 9.5806 20.5306 10.1376 20.6777C12.9972 21.4335 16.2121 20.8755 18.3608 18.8414C20.0478 17.2386 20.6367 15.0321 20.6367 12.8205C20.6367 12.7343 20.7428 12.6886 20.8065 12.643C21.2468 12.3285 21.597 11.9531 21.9259 11.5321C22.0002 11.4357 22.0002 11.3546 22.0002 11.3191V11.3089C22.0002 11.2734 22.0002 11.2835 21.9418 11.3089L21.9312 11.3241Z" fill="#BBBBBB"/>
</svg>
