<svg width="11" height="14" viewBox="0 0 11 14" fill="none" xmlns="http://www.w3.org/2000/svg">
<path fill-rule="evenodd" clip-rule="evenodd" d="M4.60267 8.70953C4.59295 8.74608 4.57837 8.77805 4.56866 8.81459C4.04871 10.7376 3.9904 11.1624 3.45102 12.0577C3.19348 12.4825 2.90678 12.8845 2.59092 13.2682C2.55691 13.3139 2.52289 13.3687 2.45 13.355C2.37226 13.3413 2.3674 13.2728 2.35768 13.2134C2.27021 12.6287 2.22648 12.044 2.24591 11.4548C2.27507 10.6874 2.37226 10.4225 3.42672 6.26118C3.4413 6.19723 3.42672 6.14699 3.40243 6.08761C3.14974 5.44811 3.10115 4.79948 3.31982 4.14172C3.79603 2.72113 5.51136 2.6115 5.80777 3.78543C5.99243 4.51171 5.5065 5.45725 5.12747 6.85957C4.81648 8.01523 6.26455 8.83743 7.50367 7.99239C8.6456 7.21586 9.0878 5.34762 9.00519 4.02295C8.83997 1.38733 5.76404 0.816348 3.81061 1.66596C1.57533 2.63891 1.06511 5.24713 2.07584 6.43476C2.20218 6.5855 2.30423 6.67686 2.26049 6.83216C2.19732 7.06969 2.13901 7.31178 2.06612 7.54931C2.01267 7.72745 1.85717 7.7914 1.66766 7.71832C1.29349 7.57671 0.987358 7.35289 0.734675 7.06055C-0.12542 6.0602 -0.368384 4.0869 0.763831 2.41508C2.02239 0.560551 4.35971 -0.188571 6.49293 0.0398201C9.04406 0.313889 10.6525 1.94917 10.9538 3.80827C11.0898 4.65331 10.9926 6.74081 9.72922 8.21621C8.27629 9.91087 5.91954 10.0251 4.83106 8.9836C4.74845 8.90595 4.68042 8.81003 4.59781 8.7141L4.60267 8.70953Z" fill="black"/>
</svg>
