<svg width="20" height="20" viewBox="0 0 20 20" fill="none" xmlns="http://www.w3.org/2000/svg">
<g id="PC / Buttons / Ico / &#226;&#153;&#161; Product_Check">
<path id="PC / Buttons / Ico / &#226;&#153;&#161; Product_Check_2" d="M11.1422 1.6995L9.99947 2.97662L8.85777 1.6995C8.40782 1.16723 7.84624 0.739292 7.21243 0.445709C6.57861 0.152125 5.8879 0 5.18873 0C4.48955 0 3.79884 0.152125 3.16503 0.445709C2.53121 0.739292 1.96964 1.16723 1.51968 1.6995C0.538764 2.84447 0 4.29955 0 5.80383C0 7.30811 0.538764 8.7632 1.51968 9.90816L9.99947 20L18.4803 9.90816C19.4612 8.7632 20 7.30811 20 5.80383C20 4.29955 19.4612 2.84447 18.4803 1.6995C18.0304 1.16723 17.4688 0.739292 16.835 0.445709C16.2012 0.152125 15.5104 0 14.8113 0C14.1121 0 13.4214 0.152125 12.7876 0.445709C12.1538 0.739292 11.5922 1.16723 11.1422 1.6995Z" fill="#FF563F"/>
</g>
</svg>
