<svg width="17" height="17" viewBox="0 0 17 17" fill="none" xmlns="http://www.w3.org/2000/svg">
<g id="icon_instagram">
<path id="Exclude" fill-rule="evenodd" clip-rule="evenodd" d="M2 0C0.895431 0 0 0.89543 0 2V15C0 16.1046 0.89543 17 2 17H15C16.1046 17 17 16.1046 17 15V2C17 0.895431 16.1046 0 15 0H2ZM13.5225 2.39571C12.8801 2.39571 12.3634 2.91241 12.3634 3.5548C12.3634 4.19719 12.8801 4.71389 13.5225 4.71389C14.1649 4.71389 14.6816 4.19719 14.6816 3.5548C14.6816 2.91241 14.1649 2.39571 13.5225 2.39571ZM8.49979 3.86391C5.94614 3.86391 3.86343 5.93999 3.86343 8.50027C3.86343 11.0606 5.93951 13.1366 8.49979 13.1366C11.0601 13.1366 13.1362 11.0606 13.1362 8.50027C13.1362 5.93999 11.0601 3.86391 8.49979 3.86391ZM8.49979 11.4652C6.86148 11.4652 5.52827 10.132 5.52827 8.49364C5.52827 6.85532 6.86148 5.52875 8.49979 5.52875C10.1381 5.52875 11.4647 6.86196 11.4647 8.49364C11.4647 10.1253 10.1315 11.4652 8.49979 11.4652Z" fill="#777777"/>
</g>
</svg>
