<svg width="55" height="55" viewBox="0 0 55 55" fill="none" xmlns="http://www.w3.org/2000/svg">
<g id="confirmation_number">
<mask id="mask0_1807_27560" style="mask-type:alpha" maskUnits="userSpaceOnUse" x="0" y="0" width="55" height="55">
<rect id="Bounding box" width="55" height="55" fill="#D9D9D9"/>
</mask>
<g mask="url(#mask0_1807_27560)">
<g id="Group 470">
<g id="Group 632">
<g id="Group">
<path id="Vector" d="M24.125 32.1939L32.2072 17.9102" stroke="black" stroke-miterlimit="10"/>
<path id="Vector_2" d="M22.5925 24.1255C24.3048 24.1255 25.6929 22.8151 25.6929 21.1985C25.6929 19.582 24.3048 18.2715 22.5925 18.2715C20.8803 18.2715 19.4922 19.582 19.4922 21.1985C19.4922 22.8151 20.8803 24.1255 22.5925 24.1255Z" stroke="black" stroke-miterlimit="10"/>
<path id="Vector_3" d="M33.4089 31.94C35.1212 31.94 36.5093 30.6295 36.5093 29.013C36.5093 27.3964 35.1212 26.0859 33.4089 26.0859C31.6967 26.0859 30.3086 27.3964 30.3086 29.013C30.3086 30.6295 31.6967 31.94 33.4089 31.94Z" stroke="black" stroke-miterlimit="10"/>
</g>
<path id="Vector_4" d="M45 46.9838V43.3108V7H11V43.1162V46.9838H14.4576L17.9153 43.3108L21.3729 46.9838L24.94 43.3676L28 47L31.3193 43.3108L34.6934 47L38.0847 43.3108L41.5424 46.9838H45Z" stroke="black" stroke-miterlimit="10"/>
</g>
</g>
</g>
</g>
</svg>
