<svg width="17" height="17" viewBox="0 0 17 17" fill="none" xmlns="http://www.w3.org/2000/svg">
<circle cx="8.5" cy="8.5" r="8" fill="white" stroke="#DDDDDD"/>
<path d="M9.744 7.5C9.744 7.242 9.69 7.023 9.582 6.843C9.474 6.663 9.321 6.525 9.123 6.429C8.925 6.333 8.691 6.285 8.421 6.285C8.121 6.285 7.863 6.354 7.647 6.492C7.437 6.624 7.263 6.804 7.125 7.032L6.54 6.663C6.678 6.453 6.831 6.27 6.999 6.114C7.167 5.952 7.371 5.829 7.611 5.745C7.857 5.655 8.157 5.61 8.511 5.61C8.793 5.61 9.051 5.658 9.285 5.754C9.525 5.85 9.732 5.985 9.906 6.159C10.086 6.327 10.224 6.525 10.32 6.753C10.422 6.981 10.473 7.23 10.473 7.5C10.473 7.842 10.383 8.154 10.203 8.436C10.023 8.712 9.789 8.937 9.501 9.111C9.213 9.279 8.901 9.372 8.565 9.39L8.502 10.47H7.962L7.782 8.895H8.016C8.376 8.895 8.685 8.826 8.943 8.688C9.201 8.55 9.399 8.376 9.537 8.166C9.675 7.95 9.744 7.728 9.744 7.5ZM7.755 11.64C7.755 11.502 7.803 11.385 7.899 11.289C8.001 11.193 8.118 11.145 8.25 11.145C8.388 11.145 8.505 11.193 8.601 11.289C8.697 11.385 8.745 11.502 8.745 11.64C8.745 11.772 8.697 11.889 8.601 11.991C8.505 12.087 8.388 12.135 8.25 12.135C8.118 12.135 8.001 12.087 7.899 11.991C7.803 11.889 7.755 11.772 7.755 11.64Z" fill="black"/>
</svg>
