<svg width="22" height="22" viewBox="0 0 22 22" fill="none" xmlns="http://www.w3.org/2000/svg">
<rect x="3.99976" y="4" width="14" height="14" rx="2" fill="#777777"/>
<path d="M16.1031 5.30505C15.4567 5.30505 14.9368 5.7963 14.9368 6.40704C14.9368 7.01778 15.4567 7.50903 16.1031 7.50903C16.7495 7.50903 17.2694 7.01778 17.2694 6.40704C17.2694 5.7963 16.7495 5.30505 16.1031 5.30505Z" fill="white"/>
<path d="M10.9109 6.71942C8.20589 6.71942 5.99976 8.79726 5.99976 11.3597C5.99976 13.9222 8.19886 16 10.9109 16C13.6229 16 15.822 13.9222 15.822 11.3597C15.822 8.79726 13.6229 6.71942 10.9109 6.71942ZM10.9109 14.3271C9.17547 14.3271 7.76326 12.9928 7.76326 11.3531C7.76326 9.71337 9.17547 8.38568 10.9109 8.38568C12.6463 8.38568 14.0514 9.72001 14.0514 11.3531C14.0514 12.9861 12.6392 14.3271 10.9109 14.3271Z" fill="white"/>
</svg>
