<svg width="28" height="28" viewBox="0 0 28 28" fill="none" xmlns="http://www.w3.org/2000/svg">
<g id="PC / Buttons / Ico / &#226;&#153;&#161; Uncheck_14_14">
<path id="Ico / &#226;&#153;&#161;" d="M15.9717 2.71272L15.9719 2.71285L15.981 2.7021C16.5638 2.01265 17.2913 1.45816 18.1128 1.07768C18.9342 0.697204 19.8295 0.5 20.7358 0.5C21.6421 0.5 22.5374 0.697204 23.3588 1.07768C24.1802 1.45816 24.9078 2.01265 25.4906 2.7021L25.4927 2.70461C26.7886 4.21718 27.5 6.13899 27.5 8.12537C27.5 10.1117 26.7886 12.0336 25.4927 13.5461L25.4897 13.5498L13.9993 27.2228L2.51036 13.5498L2.51038 13.5498L2.50726 13.5461C1.21141 12.0336 0.5 10.1117 0.5 8.12537C0.5 6.13899 1.21141 4.21718 2.50726 2.70461L2.50727 2.70462L2.5094 2.7021C3.09222 2.01265 3.81978 1.45816 4.64119 1.07768C5.46261 0.697204 6.35788 0.5 7.26422 0.5C8.17055 0.5 9.06583 0.697204 9.88725 1.07768C10.7087 1.45816 11.4362 2.01265 12.019 2.7021L12.0189 2.70222L12.0281 2.71254L13.6265 4.5005L13.9991 4.91729L14.3719 4.50068L15.9717 2.71272Z" stroke="black" stroke-miterlimit="10"/>
</g>
</svg>
