<svg width="16" height="18" viewBox="0 0 16 18" fill="none" xmlns="http://www.w3.org/2000/svg">
<path d="M1.35749 18C0.988403 18 0.669884 17.866 0.40193 17.5979C0.133977 17.3298 0 17.0111 0 16.6418V3.00606C0 2.63679 0.133977 2.31811 0.40193 2.05003C0.669884 1.78194 0.988403 1.64789 1.35749 1.64789H3.09504V0H4.28055V1.64789H11.7557V0H12.914V1.64789H14.6425C15.0116 1.64789 15.3301 1.78194 15.5981 2.05003C15.866 2.31811 16 2.63679 16 3.00606V16.6418C16 17.0111 15.866 17.3298 15.5981 17.5979C15.3301 17.866 15.0116 18 14.6425 18H1.35749ZM1.35749 16.9316H14.6425C14.7149 16.9316 14.7813 16.9014 14.8416 16.8411C14.902 16.7807 14.9321 16.7143 14.9321 16.6418V7.28875H1.06786V16.6418C1.06786 16.7143 1.09803 16.7807 1.15836 16.8411C1.2187 16.9014 1.28508 16.9316 1.35749 16.9316ZM1.06786 6.22037H14.9321V3.00606C14.9321 2.93362 14.902 2.86721 14.8416 2.80683C14.7813 2.74647 14.7149 2.71629 14.6425 2.71629H1.35749C1.28508 2.71629 1.2187 2.74647 1.15836 2.80683C1.09803 2.86721 1.06786 2.93362 1.06786 3.00606V6.22037ZM8 11.0101C7.76954 11.0101 7.57316 10.9289 7.41087 10.7665C7.24858 10.6041 7.16743 10.4077 7.16743 10.1771C7.16743 9.9465 7.24858 9.75002 7.41087 9.58765C7.57316 9.42528 7.76954 9.34409 8 9.34409C8.23046 9.34409 8.42684 9.42528 8.58913 9.58765C8.75142 9.75002 8.83257 9.9465 8.83257 10.1771C8.83257 10.4077 8.75142 10.6041 8.58913 10.7665C8.42684 10.9289 8.23046 11.0101 8 11.0101ZM4.23528 11.0101C4.00482 11.0101 3.80844 10.9289 3.64615 10.7665C3.48386 10.6041 3.40272 10.4077 3.40272 10.1771C3.40272 9.9465 3.48386 9.75002 3.64615 9.58765C3.80844 9.42528 4.00482 9.34409 4.23528 9.34409C4.46575 9.34409 4.66212 9.42528 4.82441 9.58765C4.9867 9.75002 5.06785 9.9465 5.06785 10.1771C5.06785 10.4077 4.9867 10.6041 4.82441 10.7665C4.66212 10.9289 4.46575 11.0101 4.23528 11.0101ZM11.7647 11.0101C11.5343 11.0101 11.3379 10.9289 11.1756 10.7665C11.0133 10.6041 10.9321 10.4077 10.9321 10.1771C10.9321 9.9465 11.0133 9.75002 11.1756 9.58765C11.3379 9.42528 11.5343 9.34409 11.7647 9.34409C11.9952 9.34409 12.1916 9.42528 12.3538 9.58765C12.5161 9.75002 12.5973 9.9465 12.5973 10.1771C12.5973 10.4077 12.5161 10.6041 12.3538 10.7665C12.1916 10.9289 11.9952 11.0101 11.7647 11.0101ZM8 14.7042C7.76954 14.7042 7.57316 14.6231 7.41087 14.4607C7.24858 14.2983 7.16743 14.1018 7.16743 13.8713C7.16743 13.6407 7.24858 13.4442 7.41087 13.2818C7.57316 13.1194 7.76954 13.0382 8 13.0382C8.23046 13.0382 8.42684 13.1194 8.58913 13.2818C8.75142 13.4442 8.83257 13.6407 8.83257 13.8713C8.83257 14.1018 8.75142 14.2983 8.58913 14.4607C8.42684 14.6231 8.23046 14.7042 8 14.7042ZM4.23528 14.7042C4.00482 14.7042 3.80844 14.6231 3.64615 14.4607C3.48386 14.2983 3.40272 14.1018 3.40272 13.8713C3.40272 13.6407 3.48386 13.4442 3.64615 13.2818C3.80844 13.1194 4.00482 13.0382 4.23528 13.0382C4.46575 13.0382 4.66212 13.1194 4.82441 13.2818C4.9867 13.4442 5.06785 13.6407 5.06785 13.8713C5.06785 14.1018 4.9867 14.2983 4.82441 14.4607C4.66212 14.6231 4.46575 14.7042 4.23528 14.7042ZM11.7647 14.7042C11.5343 14.7042 11.3379 14.6231 11.1756 14.4607C11.0133 14.2983 10.9321 14.1018 10.9321 13.8713C10.9321 13.6407 11.0133 13.4442 11.1756 13.2818C11.3379 13.1194 11.5343 13.0382 11.7647 13.0382C11.9952 13.0382 12.1916 13.1194 12.3538 13.2818C12.5161 13.4442 12.5973 13.6407 12.5973 13.8713C12.5973 14.1018 12.5161 14.2983 12.3538 14.4607C12.1916 14.6231 11.9952 14.7042 11.7647 14.7042Z" fill="#BBBBBB"/>
</svg>
