<svg width="18" height="18" viewBox="0 0 18 18" fill="none" xmlns="http://www.w3.org/2000/svg">
<path fill-rule="evenodd" clip-rule="evenodd" d="M9.75198 5.89632C9.3502 5.92707 8.88591 5.95731 8.42212 6.01831C7.71132 6.11208 7.00051 6.23609 6.41423 6.51436C5.27039 6.97815 4.49707 7.96773 4.49707 9.42009C4.49707 11.246 5.67116 12.1726 7.15629 12.1726C7.65032 12.1726 8.0521 12.1101 8.42212 12.0183C9.01093 11.8323 9.50396 11.492 10.0913 10.873C10.4315 11.3367 10.5253 11.5545 11.1116 12.0486C11.2663 12.1096 11.4211 12.1096 11.5441 12.0178C11.9157 11.7083 12.5655 11.1512 12.9047 10.8422C13.0595 10.7187 13.0292 10.5327 12.935 10.3789C12.5957 9.94538 12.2549 9.57385 12.2549 8.73953V5.95681C12.2549 4.78171 12.3487 3.69938 11.4831 2.89582C10.7723 2.24803 9.65922 2 8.79366 2H8.42212C6.84676 2.09125 5.17864 2.7718 4.80609 4.72072C4.74459 4.96874 4.93061 5.061 5.05412 5.09124L6.78526 5.30801C6.97027 5.27676 7.06353 5.12199 7.09428 4.96874C7.24803 4.28818 7.80508 3.94791 8.42263 3.8854H8.54714C8.91868 3.8854 9.32046 4.04016 9.53622 4.35019C9.78324 4.72072 9.75299 5.21626 9.75299 5.6493V5.89632H9.75198ZM9.4117 9.57485C9.19493 10.0074 8.8239 10.2857 8.42162 10.3799C8.36062 10.3799 8.26786 10.4107 8.1746 10.4107C7.49505 10.4107 7.09327 9.88489 7.09327 9.11208C7.09327 8.12199 7.68057 7.65871 8.42162 7.44143C8.8234 7.34918 9.28769 7.31792 9.75148 7.31792V7.68946C9.75148 8.40026 9.78223 8.95681 9.4112 9.57536L9.4117 9.57485Z" fill="#2C3843"/>
<path fill-rule="evenodd" clip-rule="evenodd" d="M13.9778 13.3406C13.9078 13.3396 13.8362 13.3562 13.7696 13.3875C13.6945 13.4172 13.6179 13.4515 13.5458 13.4823L13.4394 13.5266L13.3013 13.5816V13.5831C11.7985 14.1926 10.2196 14.5505 8.7587 14.5817C8.70527 14.5832 8.65082 14.5832 8.5989 14.5832C6.30113 14.5848 4.42683 13.5185 2.53639 12.4685C2.47035 12.4337 2.4023 12.4155 2.33626 12.4155C2.25157 12.4155 2.16435 12.4478 2.10084 12.5068C2.03732 12.5683 1.99951 12.6545 2.00001 12.7427C1.999 12.8571 2.06101 12.9625 2.14721 13.0311C3.9217 14.5727 5.86709 16.0043 8.48346 16.0064C8.53437 16.0064 8.58629 16.0048 8.63822 16.0038C10.3023 15.9665 12.1842 15.4039 13.6451 14.4865L13.6542 14.4804C13.8452 14.366 14.0363 14.2359 14.2168 14.0917C14.3287 14.0085 14.4063 13.8785 14.4063 13.7434C14.4013 13.5039 14.1981 13.3416 13.9783 13.3416L13.9778 13.3406ZM16.0044 12.4886V12.4876C15.9978 12.3419 15.9671 12.2305 15.9066 12.1383L15.9 12.1292L15.8925 12.1201C15.831 12.0526 15.7715 12.0269 15.7074 11.9991C15.5154 11.925 15.2366 11.8852 14.9004 11.8847C14.6589 11.8847 14.3932 11.9079 14.1255 11.9664L14.1245 11.9482L13.8553 12.038L13.8503 12.0405L13.698 12.0899V12.0964C13.5196 12.1705 13.3573 12.2628 13.2065 12.3722C13.1128 12.4423 13.0351 12.5355 13.0311 12.6777C13.0286 12.7553 13.0684 12.844 13.1334 12.897C13.1985 12.9499 13.2741 12.9681 13.3411 12.9681C13.3568 12.9681 13.3714 12.967 13.385 12.9645L13.3981 12.9635L13.4082 12.962C13.5397 12.9338 13.7318 12.9151 13.9566 12.8839C14.1492 12.8622 14.3534 12.8466 14.5308 12.8466C14.6559 12.8456 14.7688 12.8546 14.8464 12.8713C14.8852 12.8793 14.914 12.8894 14.9296 12.8975C14.9356 12.899 14.9397 12.9015 14.9422 12.9035C14.9457 12.9141 14.9503 12.9423 14.9498 12.9812C14.9513 13.1294 14.8888 13.4046 14.8026 13.6733C14.7184 13.942 14.6165 14.2112 14.549 14.3902C14.5323 14.4315 14.5218 14.4769 14.5218 14.5263C14.5203 14.5979 14.55 14.6851 14.6125 14.743C14.6735 14.8005 14.7526 14.8237 14.8182 14.8237H14.8217C14.9205 14.8227 15.0047 14.7834 15.0768 14.7264C15.7604 14.1119 15.9983 13.1299 16.0084 12.5769L16.0069 12.4886H16.0044Z" fill="#F8992C"/>
</svg>
