<svg width="20" height="20" viewBox="0 0 20 20" fill="none" xmlns="http://www.w3.org/2000/svg">
<mask id="mask0_557_1566" style="mask-type:alpha" maskUnits="userSpaceOnUse" x="0" y="0" width="20" height="20">
<rect width="20" height="20" fill="#D9D9D9"/>
</mask>
<g mask="url(#mask0_557_1566)">
<path d="M10 15.7916C8.3921 15.7916 7.01443 15.2201 5.867 14.0769C4.71957 12.9337 4.16669 11.5331 4.20836 9.87499V9.37014L2.8125 10.766L2.03848 9.99197L4.75 7.28047L7.46152 9.99197L6.6875 10.766L5.29165 9.37014V9.87499C5.26387 11.2393 5.71446 12.3859 6.64342 13.3149C7.57238 14.2439 8.69124 14.7083 10 14.7083C10.2895 14.7083 10.5719 14.6846 10.847 14.637C11.1221 14.5895 11.3889 14.5182 11.6474 14.4231L12.4391 15.2147C12.0812 15.3835 11.6976 15.5219 11.2885 15.6298C10.8793 15.7377 10.4498 15.7916 10 15.7916ZM15.25 12.7195L12.5385 10.008L13.3125 9.23399L14.7084 10.6298V10.125C14.7361 8.76067 14.2855 7.61403 13.3566 6.68507C12.4276 5.75611 11.3088 5.29164 10 5.29164C9.72436 5.29164 9.44552 5.31541 9.16346 5.36295C8.88142 5.41049 8.61112 5.4818 8.35257 5.57689L7.56092 4.78526C7.91882 4.61645 8.30584 4.4781 8.72196 4.3702C9.1381 4.2623 9.56412 4.20834 10 4.20834C11.6218 4.20834 13.0029 4.77992 14.1434 5.92307C15.2839 7.06624 15.8333 8.46688 15.7917 10.125V10.6298L17.1875 9.23399L17.9615 10.008L15.25 12.7195Z" fill="black"/>
</g>
</svg>
