<svg width="18" height="19" viewBox="0 0 18 19" fill="none" xmlns="http://www.w3.org/2000/svg">
<path d="M3.5 6.50001C1.84315 6.50001 0.5 7.84316 0.5 9.50001C0.5 11.1569 1.84314 12.5 3.5 12.5C5.15686 12.5 6.5 11.1569 6.5 9.50001C6.5 7.84316 5.15686 6.50001 3.5 6.50001Z" stroke="black"/>
<path d="M14.5 12.5C12.8431 12.5 11.5 13.8432 11.5 15.5C11.5 17.1569 12.8431 18.5 14.5 18.5C16.1569 18.5 17.5 17.1569 17.5 15.5C17.5 13.8432 16.1569 12.5 14.5 12.5Z" stroke="black"/>
<path d="M11.3594 3.49999C11.3594 5.15684 12.7025 6.49999 14.3594 6.49999C16.0162 6.49999 17.3594 5.15684 17.3594 3.49999C17.3594 1.84314 16.0162 0.5 14.3594 0.5C12.7025 0.5 11.3594 1.84314 11.3594 3.49999Z" stroke="black"/>
<path d="M11.5 5L6.5 7.99999M6.5 11L12 14" stroke="black"/>
</svg>
