<svg width="22" height="22" viewBox="0 0 22 22" fill="none" xmlns="http://www.w3.org/2000/svg">
<path fill-rule="evenodd" clip-rule="evenodd" d="M10.6024 13.7095C10.5927 13.7461 10.5781 13.7781 10.5684 13.8146C10.0485 15.7376 9.99016 16.1624 9.45077 17.0577C9.19323 17.4825 8.90653 17.8845 8.59068 18.2682C8.55667 18.3139 8.52265 18.3687 8.44976 18.355C8.37201 18.3413 8.36715 18.2728 8.35743 18.2134C8.26997 17.6287 8.22623 17.044 8.24567 16.4548C8.27483 15.6874 8.37201 15.4225 9.42648 11.2612C9.44106 11.1972 9.42648 11.147 9.40218 11.0876C9.1495 10.4481 9.10091 9.79948 9.31957 9.14172C9.79578 7.72113 11.5111 7.6115 11.8075 8.78543C11.9922 9.51171 11.5063 10.4572 11.1272 11.8596C10.8162 13.0152 12.2643 13.8374 13.5034 12.9924C14.6454 12.2159 15.0876 10.3476 15.0049 9.02295C14.8397 6.38733 11.7638 5.81635 9.81036 6.66596C7.57509 7.63891 7.06486 10.2471 8.0756 11.4348C8.20194 11.5855 8.30398 11.6769 8.26025 11.8322C8.19708 12.0697 8.13877 12.3118 8.06588 12.5493C8.01242 12.7275 7.85693 12.7914 7.66741 12.7183C7.29325 12.5767 6.98711 12.3529 6.73443 12.0606C5.87434 11.0602 5.63137 9.0869 6.76359 7.41508C8.02214 5.56055 10.3595 4.81143 12.4927 5.03982C15.0438 5.31389 16.6522 6.94917 16.9535 8.80827C17.0896 9.65331 16.9924 11.7408 15.729 13.2162C14.2761 14.9109 11.9193 15.0251 10.8308 13.9836C10.7482 13.9059 10.6802 13.81 10.5976 13.7141L10.6024 13.7095Z" fill="#777777"/>
</svg>
