<svg width="22" height="22" viewBox="0 0 22 22" fill="none" xmlns="http://www.w3.org/2000/svg">
<path fill-rule="evenodd" clip-rule="evenodd" d="M12.7956 16.8894C13.1427 16.8823 13.5075 16.8717 13.89 16.8575C13.8897 16.8568 13.8894 16.856 13.889 16.8553C14.6183 16.8272 15.3376 16.789 16.0469 16.7408C16.7765 16.6912 17.3042 16.624 17.63 16.539C17.9983 16.4398 18.3171 16.2556 18.5863 15.9865C18.8554 15.7173 19.0396 15.3985 19.1388 15.0302C19.2238 14.7044 19.291 14.3077 19.3406 13.8402C19.3902 13.3727 19.4292 12.9265 19.4575 12.5015C19.4793 12.1086 19.4927 11.7116 19.4978 11.3103C19.4985 11.3106 19.4993 11.3109 19.5 11.3113V10.9502C19.5 10.9501 19.5 10.9501 19.5 10.95C19.5 10.4259 19.4858 9.90889 19.4575 9.39896C19.4575 9.39889 19.4575 9.39882 19.4575 9.39875C19.4292 8.97375 19.3902 8.5275 19.3406 8.06C19.291 7.5925 19.2238 7.19583 19.1388 6.87C19.0396 6.50167 18.8554 6.18292 18.5863 5.91375C18.3171 5.64458 17.9983 5.46042 17.63 5.36125C17.3042 5.27625 16.7765 5.20896 16.0469 5.15938C15.3173 5.10979 14.5771 5.07083 13.8263 5.0425C12.9479 5.01417 12.0058 5 11 5C10.9299 5 10.8601 5.00007 10.7906 5.00021L10.1288 5.00021C9.85958 5.00021 9.55146 5.00375 9.20438 5.01083C8.85729 5.01791 8.4925 5.02854 8.11 5.04271C8.11032 5.04344 8.11065 5.04417 8.11097 5.04489C7.38165 5.07301 6.66237 5.11117 5.95312 5.15938C5.22354 5.20896 4.69583 5.27625 4.37 5.36125C4.00167 5.46042 3.68292 5.64458 3.41375 5.91375C3.14458 6.18292 2.96042 6.50167 2.86125 6.87C2.77625 7.19583 2.70896 7.5925 2.65938 8.06C2.60979 8.5275 2.57083 8.97375 2.5425 9.39875C2.52068 9.7916 2.50726 10.1886 2.50224 10.5899C2.5015 10.5896 2.50075 10.5893 2.5 10.589V10.95V10.9502C2.5 11.4744 2.51417 11.9915 2.5425 12.5015C2.57083 12.9265 2.60979 13.3727 2.65937 13.8402C2.70896 14.3077 2.77625 14.7044 2.86125 15.0302C2.96042 15.3985 3.14458 15.7173 3.41375 15.9865C3.68292 16.2556 4.00167 16.4398 4.37 16.539C4.69583 16.624 5.22354 16.6912 5.95312 16.7408C6.68271 16.7904 7.42292 16.8294 8.17375 16.8577C9.05208 16.886 9.99417 16.9002 11 16.9002C11.07 16.9002 11.1397 16.9001 11.2092 16.9H11.8713C12.1404 16.9 12.4485 16.8965 12.7956 16.8894Z" fill="#777777"/>
<path d="M13.7198 10.9502L9.2998 13.5002V8.40021L13.7198 10.9502Z" fill="white"/>
</svg>
