<svg width="174" height="22" viewBox="0 0 174 22" fill="none" xmlns="http://www.w3.org/2000/svg">
<path d="M14.7252 9.46818L9.25848 22L0 0.79499H4.47278L9.42782 12.143L14.7252 0L20.0263 12.143L24.985 0.79499H29.4578L20.2002 22L14.7252 9.46818ZM101.144 10.7265C101.102 9.42881 101.327 8.13617 101.805 6.92639C102.282 5.71659 103.002 4.61459 103.922 3.68663C104.842 2.75867 105.942 2.02391 107.157 1.52652C108.372 1.02913 109.676 0.779369 110.991 0.792263C113.703 0.792263 116.563 1.43644 118.347 3.86503L115.634 6.59072C114.925 5.42594 113.166 4.60824 111.039 4.60824C108.058 4.60824 105.419 6.96142 105.419 10.7274C105.419 14.2954 107.617 17.0455 111.235 17.0455C112.236 17.0776 113.226 16.8265 114.087 16.3217C114.95 15.8169 115.646 15.0794 116.098 14.1963L119.03 16.4268C118.23 17.8059 117.061 18.9417 115.652 19.7106C114.243 20.4795 112.647 20.8521 111.038 20.788C105.222 20.7861 101.144 16.6976 101.144 10.7265ZM57.5756 10.7765C57.528 9.4547 57.7561 8.13729 58.2459 6.90623C58.7358 5.67516 59.4768 4.5567 60.4231 3.62034C61.3694 2.68397 62.5005 1.94973 63.7464 1.46322C64.9922 0.976707 66.3261 0.748325 67.6652 0.792263C69.0044 0.744201 70.3392 0.969955 71.5858 1.45534C72.8324 1.94074 73.964 2.67528 74.9094 3.6129C75.8549 4.55051 76.5938 5.67093 77.0797 6.90384C77.5657 8.13674 77.7883 9.45549 77.7335 10.7774C77.7335 16.4504 73.7761 20.7861 67.6652 20.7861C66.3244 20.8278 64.9893 20.5971 63.7427 20.1082C62.496 19.6194 61.3644 18.883 60.418 17.9445C59.4716 17.006 58.7307 15.8856 58.241 14.6527C57.7515 13.4199 57.5237 12.1007 57.5719 10.7774L57.5756 10.7765ZM61.8532 10.7765C61.8532 14.1945 64.0777 17.0455 67.6688 17.0455C71.3354 17.0455 73.4613 14.1963 73.4613 10.7765C73.4613 7.38117 71.3354 4.58279 67.6688 4.58279C64.0731 4.58279 61.8459 7.38208 61.8459 10.7774L61.8532 10.7765ZM38.3426 10.7265C38.3011 9.42901 38.5258 8.13663 39.003 6.92703C39.4803 5.71742 40.2004 4.61555 41.1199 3.68762C42.0395 2.75971 43.1396 2.02488 44.354 1.52733C45.5686 1.02977 46.8725 0.779743 48.1874 0.792263C50.9005 0.792263 53.7599 1.43644 55.5444 3.86503L52.8313 6.59072C52.1217 5.42594 50.363 4.60824 48.2361 4.60824C45.2551 4.60824 42.6157 6.96142 42.6157 10.7274C42.6157 14.2954 44.8144 17.0455 48.4312 17.0455C49.4328 17.0776 50.4227 16.8265 51.2844 16.3217C52.1461 15.8169 52.8438 15.0794 53.2951 14.1963L56.2319 16.4259C55.4311 17.8049 54.2626 18.9406 52.8534 19.7096C51.4443 20.4785 49.8486 20.8512 48.2398 20.787C42.4196 20.7861 38.3389 16.6976 38.3389 10.7265H38.3426ZM94.8027 20.4645L85.3281 8.52142V20.4645H81.0025V0.991245H84.104L93.5345 12.7835V0.991245H97.8307V20.4645H94.8027ZM167.408 20.4645L170.704 12.9171L174 20.4645H167.408ZM157.745 20.4645V4.53373H153.248V0.990339H166.542V4.53373H162.046V20.4635L157.745 20.4645ZM138.393 20.4645V0.991245H144.743C149.558 0.991245 151.904 3.51796 151.904 6.78878C151.904 10.4803 148.825 13.1805 145.012 13.1805H142.691V20.4635L138.393 20.4645ZM142.694 9.46543H144.477C146.848 9.46543 147.607 8.42511 147.607 6.81423C147.607 5.50135 146.849 4.53555 144.454 4.53555H142.695L142.694 9.46543ZM122.062 20.4635V0.991245H134.026V4.53464H126.36V8.77036H133.24V12.2883H126.36V16.7721H134.609V20.4635H122.062ZM27.8739 20.4635L31.1696 12.9161L34.4644 20.4635H27.8739Z" fill="black"/>
</svg>
