<svg width="379" height="47" viewBox="0 0 379 47" fill="none" xmlns="http://www.w3.org/2000/svg">
<g clip-path="url(#clip0_1_3777)">
<path d="M105.069 44.4077C92.4002 44.4077 83.5106 35.6762 83.5106 22.9143C83.5106 10.1525 92.9319 1.69385 104.96 1.69385C110.871 1.69385 117.097 3.06951 120.984 8.25952L115.073 14.0805C113.529 11.5907 109.699 9.84552 105.063 9.84552C98.5686 9.84552 92.8175 14.8764 92.8175 22.92C92.8175 30.543 97.6082 36.4209 105.486 36.4209C107.773 36.4209 112.992 35.9434 116.079 30.3327L122.465 35.0964C117.726 42.7194 110.7 44.4134 105.057 44.4134L105.069 44.4077Z" fill="white"/>
<path d="M147.39 44.4077C134.401 44.4077 125.403 35.1418 125.403 23.0223C125.403 10.9028 134.401 1.69385 147.39 1.69385C160.379 1.69385 169.32 10.9028 169.32 23.028C169.32 35.1532 160.699 44.4134 147.39 44.4134V44.4077ZM147.39 9.78867C139.564 9.78867 134.722 15.7688 134.722 23.0223C134.722 30.2759 139.564 36.4152 147.39 36.4152C155.216 36.4152 160.007 30.327 160.007 23.0223C160.007 15.7177 155.376 9.78867 147.39 9.78867Z" fill="white"/>
<path d="M241.866 44.4077C229.197 44.4077 220.308 35.6762 220.308 22.9143C220.308 10.1525 229.729 1.69385 241.757 1.69385C247.668 1.69385 253.894 3.06951 257.781 8.25952L251.87 14.0805C250.326 11.5907 246.496 9.84552 241.86 9.84552C235.366 9.84552 229.614 14.8764 229.614 22.92C229.614 30.543 234.405 36.4209 242.283 36.4209C244.57 36.4209 249.789 35.9434 252.876 30.3327L259.262 35.0964C254.523 42.7194 247.497 44.4134 241.854 44.4134L241.866 44.4077Z" fill="white"/>
<path d="M213.104 2.11475H203.735V27.3144L183.2 2.11475H176.443V43.7201H185.864V18.2078L206.49 43.7201H213.104V2.11475Z" fill="white"/>
<path d="M265.876 43.7201V2.11475H291.933V9.68659H275.246V18.7364H290.23V26.2514H275.246V35.8299H293.214V43.7144H265.876V43.7201Z" fill="white"/>
<path d="M315.869 28.1614H310.81V43.7258H301.44V2.11475H315.281C325.765 2.11475 330.876 7.51508 330.876 14.5014C330.876 22.3859 324.17 28.1614 315.864 28.1614H315.869ZM314.646 9.68659H310.816V20.2201H314.703C319.865 20.2201 321.518 17.9974 321.518 14.5583C321.518 11.7558 319.865 9.68659 314.652 9.68659H314.646Z" fill="white"/>
<path d="M352.966 9.68659V43.7258H343.596V9.68659H333.803V2.11475H362.764V9.68659H352.971H352.966Z" fill="white"/>
<path d="M60.7121 43.7199H75.0726L67.8924 27.5928L60.7121 43.7199Z" fill="white"/>
<path d="M364.645 43.7199H379L371.82 27.5928L364.645 43.7199Z" fill="white"/>
<path d="M43.9962 47L64.165 1.69969H54.4236L43.6303 25.9444L32.0824 0L20.5345 25.9444L9.74122 1.69969H-0.000183105L20.1629 47L32.0824 20.2314L43.9962 47Z" fill="white"/>
</g>
<defs>
<clipPath id="clip0_1_3777">
<rect width="379" height="47" fill="white"/>
</clipPath>
</defs>
</svg>
