<svg width="22" height="22" viewBox="0 0 22 22" fill="none" xmlns="http://www.w3.org/2000/svg">
<rect x="4" y="4" width="14" height="14" rx="2" fill="#777777"/>
<path fill-rule="evenodd" clip-rule="evenodd" d="M11.0393 11.2991L10.6793 11.2601L10.6789 11.2597C10.7694 11.0541 10.8569 10.8547 10.9459 10.652L10.9469 10.6497L10.9471 10.6493L11.0988 10.3038C10.9954 10.2958 10.903 10.2885 10.8116 10.2813L10.8115 10.2813L10.8114 10.2813L10.5716 10.2624L10.7233 9.90993L10.8977 9.50475C10.845 9.50475 10.7968 9.50578 10.7518 9.50675C10.6595 9.50874 10.5805 9.51044 10.5024 9.50233C10.3496 9.48625 10.2732 9.55381 10.2189 9.69014C10.1531 9.85586 10.0788 10.0185 10.0045 10.1811L10.0045 10.1811L10.0045 10.1811L10.0045 10.1812C9.97892 10.2371 9.95334 10.2931 9.92812 10.3493C9.75117 10.7414 9.7934 10.8158 10.2124 10.8511C10.2184 10.8517 10.2241 10.8581 10.2315 10.8665C10.2355 10.871 10.24 10.8762 10.2454 10.8813L10.2189 10.9457C10.1455 11.1243 10.0711 11.3052 9.99608 11.4857C9.94541 11.608 9.98643 11.7294 10.0998 11.7451C10.2822 11.7704 10.4687 11.7687 10.6548 11.7669H10.6548H10.6548H10.6548H10.6548C10.7022 11.7665 10.7495 11.766 10.7968 11.766C10.8197 11.766 10.851 11.7274 10.8639 11.6997C10.9059 11.6096 10.945 11.5185 10.9876 11.4192L10.9876 11.4191L10.9876 11.4191L10.9876 11.4191L10.9876 11.4191L10.9876 11.4191L10.9876 11.419C11.0042 11.3805 11.0213 11.3406 11.0393 11.2991ZM14.2658 12.0395H14.2657V12.0391L14.2658 12.0395ZM14.9361 12.541C14.4938 12.6266 14.3635 12.5362 14.2658 12.0395C14.3098 12.0395 14.352 12.0393 14.3929 12.0391H14.3929L14.3931 12.0391C14.4795 12.0387 14.5601 12.0383 14.6405 12.0399C14.7495 12.0423 14.7969 11.9969 14.7957 11.8843C14.7952 11.832 14.7954 11.7849 14.7956 11.7424C14.7972 11.3684 14.7972 11.3558 14.3111 11.3659C14.2042 11.3681 14.0972 11.3675 13.9825 11.3669H13.9825H13.9825H13.9825H13.9825H13.9824H13.9824C13.9264 11.3666 13.8686 11.3663 13.8081 11.3663C13.8081 11.4684 13.8073 11.5689 13.8066 11.6683V11.6684V11.6685V11.6686V11.6687V11.6687V11.6688C13.805 11.904 13.8034 12.133 13.8113 12.3616C13.8169 12.5225 13.7622 12.5711 13.6054 12.5671C13.5566 12.5659 13.5139 12.5653 13.4767 12.5648H13.4767H13.4766H13.4766C13.3371 12.563 13.2733 12.5622 13.245 12.5301C13.2211 12.5031 13.2223 12.4539 13.2245 12.3634L13.2245 12.3633C13.2256 12.3195 13.2269 12.2661 13.2257 12.2008C13.2225 12.028 13.2227 11.8555 13.223 11.6828C13.2231 11.6011 13.2232 11.5193 13.2229 11.4375C13.2229 11.4296 13.221 11.4217 13.2173 11.407L13.2173 11.407C13.215 11.3978 13.212 11.3858 13.2085 11.3695H12.6764V10.7864H13.2101V10.3489C13.1757 10.3408 13.1328 10.3349 13.0895 10.329C12.9925 10.3156 12.8932 10.302 12.8815 10.2628C12.8485 10.15 12.8544 10.0259 12.8605 9.89818C12.8629 9.84695 12.8654 9.79514 12.8654 9.74322L12.9885 9.73355L12.9885 9.73355L12.9886 9.73355C13.0604 9.72788 13.1303 9.72236 13.2052 9.71668L13.222 9.63396L13.2467 9.51158C13.2894 9.51158 13.3328 9.51035 13.3765 9.5091C13.4884 9.50591 13.6023 9.50267 13.7127 9.52003C13.7494 9.52569 13.7792 9.57504 13.8126 9.63045C13.8291 9.65775 13.8465 9.68651 13.866 9.71226C14.3981 9.80287 14.6913 10.1526 14.7455 10.7615L14.8 10.7707C14.8303 10.7759 14.8615 10.7813 14.8927 10.786C15.1911 10.8318 15.37 11.0297 15.3764 11.3313C15.3813 11.5589 15.3797 11.7865 15.3776 12.0142C15.3748 12.3166 15.2333 12.4835 14.9361 12.541ZM14.1274 10.7719H13.8169V10.3456C14.1704 10.2761 14.207 10.3263 14.1274 10.7719ZM10.8963 12.3643C10.8727 12.428 10.8477 12.4955 10.8165 12.5639H10.8169C10.9832 12.5639 11.1437 12.5644 11.3003 12.565C11.6458 12.5662 11.9721 12.5673 12.2984 12.5623C12.3821 12.561 12.4494 12.5631 12.5035 12.5648C12.6077 12.568 12.663 12.5697 12.6922 12.5429C12.7253 12.5126 12.7249 12.4459 12.724 12.3036V12.3036V12.3036V12.3036V12.3036V12.3036C12.7236 12.2487 12.7232 12.1826 12.7247 12.103C12.7263 11.9993 12.6853 11.9567 12.5835 11.9595C12.4968 11.9617 12.4099 11.9612 12.323 11.9607H12.323H12.323H12.3229H12.3229H12.3228H12.3228C12.2857 11.9605 12.2486 11.9603 12.2115 11.9603V10.3175C12.2379 10.3175 12.2629 10.3188 12.2868 10.3201C12.3388 10.323 12.3852 10.3255 12.4271 10.3131C12.4713 10.3002 12.532 10.2471 12.5353 10.2081C12.5445 10.099 12.5431 9.98903 12.5416 9.87114V9.87113V9.87113V9.87112V9.87112V9.87111V9.87111L12.5416 9.87104C12.5411 9.8256 12.5405 9.77897 12.5405 9.73075L12.2609 9.73059C11.9433 9.73032 11.6381 9.73005 11.3328 9.73317C11.3011 9.73357 11.2431 9.76856 11.2423 9.78907L11.2398 9.84832V9.84833C11.2334 9.98865 11.227 10.131 11.2548 10.2656C11.2597 10.2902 11.3374 10.2996 11.4162 10.309C11.4546 10.3136 11.4932 10.3183 11.5238 10.3247C11.5316 10.3266 11.5389 10.3307 11.5485 10.3362C11.5537 10.3391 11.5595 10.3425 11.5665 10.346V11.9189C11.5108 11.9308 11.4526 11.9379 11.3957 11.9449C11.2692 11.9604 11.1485 11.9751 11.0722 12.0411C10.9893 12.1126 10.9459 12.2298 10.8963 12.3643ZM7.6612 12.0805C7.91241 12.0368 8.03801 11.8969 8.03801 11.6607C8.03801 11.4771 8.03851 11.2936 8.03901 11.1101C8.04025 10.6574 8.04149 10.2049 8.0352 9.75247C8.03278 9.58156 8.09109 9.53491 8.25397 9.53973C8.29939 9.54104 8.33929 9.54169 8.37432 9.54225C8.507 9.54439 8.5698 9.54541 8.5988 9.57723C8.62486 9.60583 8.62362 9.65932 8.62125 9.76088C8.62033 9.80036 8.61924 9.8471 8.61952 9.90247C8.62354 10.6054 8.62274 11.3084 8.61992 12.0117C8.61831 12.3773 8.43855 12.551 8.08024 12.5663C7.93506 12.5723 7.83694 12.5386 7.79149 12.3874C7.77083 12.319 7.74035 12.2537 7.7073 12.1829C7.69211 12.1504 7.67637 12.1166 7.66079 12.0809L7.6612 12.0805ZM7.7002 10.299C7.67203 10.4871 7.66097 10.6772 7.64988 10.8675C7.62126 11.3592 7.59254 11.8525 7.2687 12.317C7.2348 12.2168 7.19099 12.1262 7.14863 12.0386C7.05229 11.8395 6.96339 11.6557 7.01534 11.4085C7.06688 11.1628 7.07693 10.9082 7.08719 10.6481C7.09175 10.5327 7.09634 10.4163 7.10462 10.299H7.7002ZM8.95457 10.2954H8.95451V10.295L8.95457 10.2954ZM8.95457 10.2954H9.54728C9.55553 10.4044 9.56031 10.5136 9.56508 10.6225L9.56508 10.6225L9.56508 10.6225V10.6225C9.57587 10.8691 9.58659 11.1138 9.63736 11.3498C9.69878 11.6352 9.59591 11.8557 9.48157 12.1007L9.48156 12.1007L9.48155 12.1007C9.44991 12.1686 9.41739 12.2383 9.38722 12.3118C9.06352 11.8586 9.03525 11.369 9.00691 10.8784C8.99566 10.6835 8.98439 10.4884 8.95457 10.2954ZM10.8201 11.9752L10.7586 12.1105L10.7586 12.1105C10.6963 12.248 10.6407 12.3707 10.582 12.4923C10.5691 12.5189 10.5342 12.5518 10.5092 12.5522C10.2934 12.5557 10.0773 12.5555 9.83598 12.5552H9.83597L9.62972 12.5551C9.65942 12.4896 9.6864 12.4296 9.71159 12.3735L9.71161 12.3734L9.71161 12.3734C9.77511 12.2321 9.82734 12.1159 9.88348 12.0013C9.89755 11.9723 9.94219 11.9382 9.97155 11.939C10.1713 11.9444 10.3709 11.9539 10.5917 11.9644L10.8201 11.9752ZM15.0994 9.72392C14.9136 9.71748 14.7986 9.85542 14.7945 10.1188C14.7861 10.2166 14.7784 10.3271 14.9699 10.3199C15.2188 10.3103 15.3692 10.2166 15.3772 10.0308C15.3841 9.86708 15.2594 9.72955 15.0994 9.72392Z" fill="white"/>
</svg>
