<svg width="118" height="32" viewBox="0 0 118 32" fill="none" xmlns="http://www.w3.org/2000/svg">
<rect width="118" height="32" fill="white"/>
<path fill-rule="evenodd" clip-rule="evenodd" d="M19.2435 20.2903C19.1841 20.3419 19.1101 20.3738 19.0317 20.3818C18.9534 20.3897 18.8745 20.3732 18.8059 20.3346C18.1914 19.8232 18.0799 19.5872 17.7456 19.1005C16.7278 20.1363 16.0083 20.446 14.6923 20.446C13.1337 20.446 11.9209 19.484 11.9209 17.5599C11.9209 16.057 12.7404 15.036 13.8876 14.5345C14.8922 14.0936 16.2951 14.0133 17.3686 13.892V13.6527C17.3686 13.2119 17.403 12.6907 17.1441 12.3088C16.9179 11.968 16.4885 11.8286 16.105 11.8286C15.3987 11.8286 14.7693 12.1908 14.6153 12.9398C14.6058 13.0248 14.5685 13.1043 14.5092 13.1659C14.45 13.2275 14.372 13.2679 14.2875 13.2807L12.5076 13.0857C12.4637 13.0794 12.4215 13.0642 12.3836 13.0411C12.3456 13.018 12.3128 12.9875 12.2871 12.9513C12.2613 12.9151 12.2432 12.8741 12.2338 12.8307C12.2244 12.7873 12.2239 12.7425 12.2323 12.6989C12.6437 10.5224 14.6103 9.86523 16.3722 9.86523C17.2736 9.86523 18.4503 10.1045 19.1583 10.7863C20.0581 11.6287 19.9778 12.753 19.9778 13.974V16.8568C19.9778 17.7254 20.3383 18.1057 20.6776 18.5727C20.7956 18.7366 20.8218 18.9415 20.6776 19.0644C20.299 19.3807 19.627 19.9642 19.2583 20.2936L19.2435 20.2903ZM17.3768 15.7768C17.3768 16.4979 17.3932 17.0994 17.031 17.7435C16.736 18.2646 16.2689 18.5859 15.7477 18.5859C15.0381 18.5859 14.6235 18.045 14.6235 17.242C14.6235 15.6653 16.0378 15.3785 17.3768 15.3785V15.78V15.7768Z" fill="#232F3E"/>
<path fill-rule="evenodd" clip-rule="evenodd" d="M24.3138 20.2184H22.4635C22.3805 20.2141 22.3017 20.1802 22.2416 20.1227C22.1814 20.0653 22.1439 19.9882 22.1357 19.9054V10.3998C22.1387 10.3082 22.1775 10.2214 22.2436 10.158C22.3098 10.0946 22.3981 10.0596 22.4897 10.0605H24.2155C24.3009 10.0652 24.3816 10.1013 24.4421 10.1617C24.5025 10.2222 24.5386 10.3029 24.5433 10.3883V11.6289H24.5777C25.0268 10.4276 25.8741 9.86875 27.0148 9.86875C28.1554 9.86875 28.8979 10.4276 29.4174 11.6289C29.5878 11.1749 29.8758 10.7743 30.2521 10.4683C30.6283 10.1623 31.0792 9.96192 31.5585 9.88768C32.0377 9.81345 32.5281 9.86805 32.9793 10.0459C33.4305 10.2237 33.8263 10.5184 34.126 10.8996C34.7144 11.6994 34.5931 12.8663 34.5931 13.8792V19.8759C34.5922 19.9219 34.5823 19.9673 34.5639 20.0094C34.5454 20.0515 34.5188 20.0896 34.4856 20.1214C34.4524 20.1533 34.4133 20.1782 34.3704 20.1949C34.3275 20.2115 34.2818 20.2195 34.2358 20.2184H32.3855C32.2978 20.2139 32.2151 20.1761 32.1542 20.1128C32.0933 20.0495 32.0588 19.9654 32.0577 19.8776V14.8396C32.0577 14.4397 32.0921 13.4399 32.0052 13.0597C31.8676 12.4205 31.4529 12.2402 30.917 12.2402C30.6767 12.2476 30.4438 12.3253 30.2472 12.4636C30.0505 12.602 29.8988 12.795 29.8107 13.0187C29.6206 13.5006 29.637 14.2987 29.637 14.8396V19.8759C29.6362 19.9218 29.6263 19.967 29.608 20.009C29.5896 20.051 29.5632 20.089 29.5302 20.1209C29.4971 20.1527 29.4582 20.1777 29.4155 20.1944C29.3728 20.2111 29.3272 20.2193 29.2814 20.2184H27.4261C27.3386 20.2135 27.2561 20.1756 27.1953 20.1124C27.1345 20.0491 27.0999 19.9653 27.0984 19.8776V14.8396C27.0984 13.7792 27.2622 12.2173 25.9511 12.2173C24.64 12.2173 24.6728 13.7366 24.6728 14.8396V19.8759C24.6719 19.9219 24.662 19.9673 24.6436 20.0094C24.6251 20.0515 24.5985 20.0896 24.5653 20.1214C24.5321 20.1533 24.493 20.1782 24.4501 20.1949C24.4072 20.2115 24.3615 20.2195 24.3155 20.2184" fill="#232F3E"/>
<path fill-rule="evenodd" clip-rule="evenodd" d="M44.9425 18.5669C44.6033 18.0998 44.2427 17.7196 44.2427 16.8526V13.9681C44.2427 12.7455 44.3296 11.6228 43.4232 10.7804C42.7136 10.0987 41.5369 9.85938 40.6371 9.85938C38.8753 9.85938 36.9086 10.5149 36.4956 12.693C36.4869 12.7369 36.4873 12.782 36.4967 12.8257C36.5061 12.8694 36.5243 12.9107 36.5502 12.947C36.5762 12.9834 36.6093 13.0141 36.6475 13.0372C36.6857 13.0603 36.7283 13.0754 36.7726 13.0815L38.5672 13.2749C38.6516 13.2618 38.7294 13.2213 38.7886 13.1598C38.8478 13.0982 38.8852 13.0188 38.8949 12.934C39.0506 12.185 39.6767 11.8228 40.3831 11.8228C40.7649 11.8228 41.2025 11.9637 41.4221 12.3046C41.6827 12.6848 41.6483 13.206 41.6483 13.6469V13.8813C40.5748 14.0009 39.1703 14.0812 38.1673 14.5221C37.0069 15.0236 36.1924 16.0446 36.1924 17.5491C36.1924 19.4716 37.4052 20.4336 38.9638 20.4336C40.2749 20.4336 40.9993 20.1238 42.0154 19.0881C42.353 19.5797 42.4628 19.8108 43.0774 20.3222C43.146 20.3605 43.2247 20.377 43.3029 20.3694C43.3811 20.3618 43.4551 20.3304 43.515 20.2795C43.8838 19.9518 44.5557 19.3667 44.9343 19.0504C45.0933 18.9373 45.0671 18.7373 44.9425 18.5669ZM41.3041 17.736C41.0108 18.2555 40.542 18.5767 40.0225 18.5767C39.3129 18.5767 38.8982 18.0359 38.8982 17.2345C38.8982 15.6562 40.3126 15.371 41.6516 15.371V15.7709C41.6516 16.4937 41.6647 17.0935 41.3041 17.736Z" fill="#232F3E"/>
<path fill-rule="evenodd" clip-rule="evenodd" d="M46.5098 11.7251V10.3665C46.5076 10.3207 46.5151 10.2749 46.5318 10.2321C46.5485 10.1894 46.5739 10.1506 46.6065 10.1183C46.6391 10.0861 46.6781 10.061 46.721 10.0447C46.7639 10.0285 46.8098 10.0214 46.8556 10.024H52.9408C52.9866 10.0224 53.0323 10.0301 53.075 10.0467C53.1177 10.0633 53.1566 10.0883 53.1894 10.1203C53.2221 10.1523 53.2481 10.1906 53.2657 10.2329C53.2832 10.2752 53.292 10.3207 53.2916 10.3665V11.5317C53.2916 11.7268 53.1277 11.9824 52.8343 12.3856L49.6811 16.8861C50.8512 16.8582 52.0886 17.0336 53.1523 17.6318C53.2488 17.6832 53.3299 17.7593 53.3875 17.8523C53.4451 17.9452 53.477 18.0518 53.48 18.1611V19.6165C53.48 19.8164 53.2621 20.0475 53.031 19.9279C52.0362 19.4165 50.9334 19.1508 49.8149 19.1528C48.6963 19.1548 47.5945 19.4245 46.6016 19.9393C46.3901 20.0524 46.1689 19.8246 46.1689 19.6247V18.2398C46.1495 17.9133 46.2283 17.5886 46.3951 17.3073L50.0482 12.0628H46.8621C46.8162 12.0645 46.7704 12.057 46.7275 12.0405C46.6846 12.024 46.6455 11.999 46.6125 11.967C46.5796 11.935 46.5535 11.8966 46.5358 11.8542C46.5182 11.8117 46.5093 11.7662 46.5098 11.7202" fill="#232F3E"/>
<path fill-rule="evenodd" clip-rule="evenodd" d="M58.5458 11.794C57.1806 11.794 57.0937 13.6525 57.0937 14.8128C57.0937 15.9732 57.0773 18.4512 58.5277 18.4512C59.9782 18.4512 60.0323 16.4518 60.0323 15.2324C60.0323 14.4326 59.9978 13.4722 59.7553 12.7134C59.5471 12.0578 59.1325 11.794 58.5458 11.794ZM58.5277 9.85352C61.2762 9.85352 62.7627 12.2135 62.7627 15.2127C62.7627 18.112 61.1238 20.4114 58.5277 20.4114C55.8317 20.4114 54.3633 18.0513 54.3633 15.1128C54.3633 12.1742 55.8498 9.85352 58.5277 9.85352Z" fill="#232F3E"/>
<path fill-rule="evenodd" clip-rule="evenodd" d="M66.346 20.1977H64.5006C64.4129 20.1932 64.3302 20.1554 64.2694 20.0921C64.2085 20.0288 64.174 19.9447 64.1729 19.8568V10.3512C64.1823 10.2641 64.2241 10.1838 64.2899 10.1261C64.3558 10.0685 64.441 10.0376 64.5285 10.0398H66.2461C66.3222 10.0422 66.3954 10.0695 66.4546 10.1174C66.5138 10.1654 66.5557 10.2313 66.5739 10.3053V11.759H66.6099C67.1278 10.4594 67.8538 9.83984 69.1322 9.83984C69.9615 9.83984 70.7711 10.1398 71.2939 10.9592C71.7774 11.7197 71.7774 12.9997 71.7774 13.9191V19.8995C71.7643 19.9838 71.721 20.0606 71.6556 20.1154C71.5902 20.1703 71.5071 20.1995 71.4217 20.1977H69.5599C69.479 20.1943 69.4019 20.1625 69.342 20.108C69.2821 20.0535 69.2432 19.9797 69.2322 19.8995V14.7385C69.2322 13.6995 69.3534 12.1786 68.0735 12.1786C67.8407 12.1893 67.616 12.2667 67.426 12.4015C67.2359 12.5363 67.0886 12.7229 67.0016 12.939C66.7427 13.5192 66.7082 14.0994 66.7082 14.7418V19.8568C66.7048 19.9496 66.6651 20.0373 66.5977 20.101C66.5302 20.1648 66.4405 20.1995 66.3477 20.1977" fill="#232F3E"/>
<path fill-rule="evenodd" clip-rule="evenodd" d="M81.4108 11.4847C80.4698 11.4921 79.5568 11.8057 78.8098 12.3779V17.7863C79.638 18.4091 80.4919 18.7199 81.3714 18.7188C83.1567 18.7188 84.0494 17.517 84.0494 15.1132C84.0494 12.7095 83.1699 11.4994 81.4108 11.4831V11.4847ZM78.6738 11.2323C79.1389 10.8221 79.6704 10.4941 80.2455 10.2621C80.7888 10.0455 81.3684 9.93427 81.9532 9.93428C82.5346 9.92346 83.1113 10.0398 83.643 10.2752C84.144 10.5049 84.5828 10.851 84.9229 11.2847C85.2933 11.7652 85.5671 12.3129 85.7293 12.8974C85.9258 13.5902 86.0208 14.3079 86.0112 15.028C86.0201 15.7634 85.9185 16.496 85.7096 17.2012C85.5348 17.7996 85.2484 18.3596 84.8656 18.8516C84.5101 19.2989 84.0586 19.6607 83.5446 19.9103C83.0045 20.161 82.4142 20.2849 81.8189 20.2725C80.7062 20.2909 79.6292 19.8801 78.8115 19.1253V23.6749C78.8192 23.7277 78.8144 23.7815 78.7976 23.8322C78.7808 23.8828 78.7525 23.9288 78.7147 23.9666C78.677 24.0043 78.631 24.0327 78.5803 24.0495C78.5297 24.0663 78.4758 24.071 78.423 24.0633H77.2758C77.223 24.071 77.1691 24.0663 77.1185 24.0495C77.0679 24.0327 77.0218 24.0043 76.9841 23.9666C76.9464 23.9288 76.918 23.8828 76.9012 23.8322C76.8844 23.7815 76.8797 23.7277 76.8874 23.6749V10.6112C76.88 10.5584 76.885 10.5047 76.9019 10.4542C76.9188 10.4037 76.9472 10.3579 76.9849 10.3202C77.0225 10.2826 77.0684 10.2542 77.1189 10.2373C77.1694 10.2204 77.2231 10.2154 77.2758 10.2227H78.1297C78.1848 10.2176 78.2404 10.2236 78.2931 10.2406C78.3459 10.2575 78.3946 10.285 78.4364 10.3213C78.4783 10.3576 78.5123 10.402 78.5365 10.4518C78.5606 10.5016 78.5745 10.5558 78.5771 10.6112L78.6738 11.2323Z" fill="#232F3E"/>
<path fill-rule="evenodd" clip-rule="evenodd" d="M90.8516 18.8662C91.309 18.8604 91.7621 18.7756 92.1906 18.6154C92.6716 18.4385 93.123 18.1899 93.5296 17.8779V15.8965C93.1932 15.8174 92.853 15.7561 92.5102 15.7129C92.1662 15.6678 91.8197 15.6448 91.4728 15.6441C90.0087 15.6441 89.2772 16.2073 89.2783 17.3338C89.2783 17.8255 89.4143 18.2041 89.6863 18.4696C89.9584 18.7351 90.3468 18.8673 90.8516 18.8662ZM88.5801 11.914L88.4342 11.9631C88.3816 11.9818 88.3262 11.9918 88.2703 11.9926C88.1064 11.9926 88.0179 11.8763 88.0179 11.6419V11.1224C88.0055 10.9911 88.0329 10.8592 88.0966 10.7438C88.1804 10.6498 88.2871 10.5793 88.4064 10.5389C88.8993 10.3386 89.4134 10.1951 89.9387 10.1112C90.5407 10.0022 91.1511 9.94732 91.7628 9.94727C92.992 9.94727 93.8978 10.1991 94.4801 10.7028C95.0625 11.2065 95.3542 11.9893 95.3553 13.0514V19.6824C95.3627 19.7351 95.3577 19.7888 95.3408 19.8393C95.3239 19.8898 95.2955 19.9356 95.2578 19.9733C95.2202 20.0109 95.1743 20.0393 95.1238 20.0563C95.0733 20.0732 95.0196 20.0781 94.9669 20.0708H94.1311C94.0786 20.076 94.0256 20.0704 93.9754 20.0544C93.9251 20.0385 93.8787 20.0125 93.8388 19.978C93.7989 19.9435 93.7665 19.9012 93.7435 19.8538C93.7205 19.8063 93.7074 19.7547 93.7049 19.702L93.6066 19.0612C93.1495 19.4573 92.6278 19.7722 92.0644 19.9921C91.5301 20.2063 90.9601 20.3175 90.3845 20.3199C89.4536 20.3199 88.7161 20.0577 88.172 19.5332C87.6279 19.0088 87.3547 18.3068 87.3525 17.4272C87.3525 16.4832 87.6891 15.7293 88.3621 15.1655C89.0352 14.6018 89.9409 14.3204 91.0794 14.3215C91.9046 14.3342 92.7253 14.4442 93.5247 14.6493V13.3742C93.5247 12.675 93.3695 12.1833 93.0592 11.8992C92.7489 11.6151 92.2053 11.4725 91.4285 11.4714C90.4626 11.4806 89.5032 11.6296 88.5801 11.914Z" fill="#232F3E"/>
<path fill-rule="evenodd" clip-rule="evenodd" d="M101.672 21.791C101.321 22.6837 100.917 23.3245 100.458 23.7134C99.9988 24.1024 99.3979 24.2963 98.6549 24.2952C98.2817 24.3002 97.9096 24.2545 97.5487 24.1592C97.4274 24.1333 97.318 24.0682 97.2373 23.974C97.1637 23.8555 97.1298 23.7165 97.1406 23.5774V23.0726C97.1406 22.8268 97.2373 22.7039 97.4323 22.7039C97.5304 22.7083 97.628 22.7209 97.724 22.7416C97.8967 22.7714 98.0717 22.7846 98.2469 22.7809C98.6589 22.8069 99.0664 22.6829 99.3941 22.4318C99.6662 22.1991 99.912 21.7719 100.132 21.1502L100.5 20.1668L96.7604 10.9218C96.6901 10.7746 96.6446 10.6167 96.626 10.4547C96.626 10.3006 96.7161 10.222 96.8964 10.222H98.0617C98.2109 10.2076 98.3608 10.2415 98.4894 10.3186C98.599 10.4411 98.6782 10.5876 98.7205 10.7464L101.439 18.2772L104.062 10.7464C104.104 10.5876 104.183 10.4411 104.293 10.3186C104.421 10.2415 104.571 10.2076 104.721 10.222H105.807C105.989 10.222 106.079 10.3006 106.079 10.4547C106.06 10.6168 106.014 10.7745 105.943 10.9218L101.672 21.791Z" fill="#232F3E"/>
<path fill-rule="evenodd" clip-rule="evenodd" d="M49.0204 23.9435C45.5442 26.5084 40.498 27.8769 36.1648 27.8769C30.3676 27.9064 24.7683 25.7702 20.464 21.8867C20.1363 21.5933 20.428 21.1918 20.8197 21.4196C25.2906 24.0205 30.817 25.5873 36.5302 25.5873C40.6482 25.5649 44.7212 24.7294 48.5156 23.129C49.1023 22.8799 49.5956 23.5158 49.0204 23.9484M50.4659 22.2981C50.9116 22.8668 49.9742 25.2137 49.553 26.2609C49.4252 26.5772 49.6989 26.7051 49.9857 26.4658C51.8491 24.9056 52.3309 21.6376 51.9524 21.1656C51.5738 20.6936 48.314 20.2937 46.3243 21.6917C46.0179 21.9064 46.0703 22.203 46.4112 22.162C47.5306 22.0276 50.025 21.7277 50.4691 22.2981" fill="#FF9900"/>
</svg>
